<?xml version="1.0" encoding="utf-8"?>
<!-- Generator: Adobe Illustrator 25.0.0, SVG Export Plug-In . SVG Version: 6.00 Build 0)  -->
<svg version="1.0" id="Camada_1" xmlns="http://www.w3.org/2000/svg" xmlns:xlink="http://www.w3.org/1999/xlink" x="0px" y="0px"
	 viewBox="0 0 1000 1000" style="enable-background:new 0 0 1000 1000;" xml:space="preserve">
<style type="text/css">
	.st0{fill:#FFFFFF;}
</style>
<path class="st0" d="M3229.61,2148.82l-0.43,2.22l-1.38,1.95c-2.87,4.2-72.43,103.78-204.68,103.78c-10.73,0-21.84-0.72-32.87-2.07
	c-74.7-9.17-149.13-35.46-227.69-80.31c-74.46-42.49-150.77-100.67-233.33-177.93c-91.67-85.72-150.12-195.23-183-272.01
	c-38.82-90.65-61.78-183.13-59.88-241.42c3.52-110.2,135.66-210.77,141.28-215.03l2.62-2l3.41-0.28c4.54-0.31,9.78-0.48,15.44-0.48
	c31.26,0,68.48,4.92,70,5.16l5.14,0.66l2.92,4.35c55.35,84.27,83.72,254.75,84.91,261.94l0.91,5.46l-3.81,4.13
	c-0.73,0.79-75.24,82.14-86.52,94.51c-6.87,7.55-9.57,16.85-10.49,20.69c24.39,108.2,103.08,198.22,165.02,254.81
	c71.62,65.52,140.18,104.89,150.75,109.93c1.98,0.98,3.98,1.93,5.78,2.82c12.3,5.94,20.44,9.86,27.65,9.86
	c4.54,0,9.58-1.5,15.81-4.61c15.46-7.74,83.37-70.68,122.49-108.52l4.97-4.79l6.59,2.15c94.38,31.09,210.73,126.74,215.61,130.82
	l1.79,1.43l1,2.02C3242.27,2082.07,3231.77,2137.86,3229.61,2148.82z"/>
<g>
	<path d="M-385.75-660.39h-832.49c-37.1,0-67.44,30.34-67.44,67.43v525.91c0,37.08,30.34,67.44,67.44,67.44h832.49
		c37.09,0,67.44-30.36,67.44-67.44v-525.91C-318.31-630.05-348.66-660.39-385.75-660.39z M-331.75-593.28L-772.02-98.5
		c-8.24,9.25-19.12,13.87-29.98,13.85c-10.86,0.01-21.72-4.6-29.97-13.85l-440.27-494.78c-4.76-5.26,0.76-9.27,6.85-3.96
		l429.49,376.23c0.06,0.03,0.11,0.06,0.17,0.11v-0.11c9.28,8.14,21.49,12.2,33.73,12.21c12.24-0.01,24.47-4.07,33.74-12.21
		l-0.01,0.11c0.05-0.05,0.12-0.08,0.17-0.11l429.49-376.23C-332.5-602.55-327-598.54-331.75-593.28z"/>
</g>
<g>
	<g id="XMLID_517_">
		<path id="XMLID_543_" class="st0" d="M-1286,455.65c131.37,0,146.93,0.5,198.81,2.87c47.96,2.19,74.02,10.2,91.36,16.95
			c22.96,8.93,39.36,19.58,56.57,36.8c17.22,17.22,27.88,33.6,36.8,56.56c6.74,17.35,14.75,43.39,16.95,91.37
			c2.36,51.88,2.87,67.43,2.87,198.81c0,131.38-0.51,146.93-2.87,198.81c-2.2,47.98-10.2,74.02-16.95,91.36
			c-8.93,22.97-19.58,39.36-36.8,56.58c-17.21,17.22-33.6,27.88-56.57,36.8c-17.34,6.75-43.4,14.76-91.36,16.95
			c-51.88,2.35-67.43,2.86-198.81,2.86c-131.39,0-146.93-0.5-198.81-2.86c-47.96-2.19-74.02-10.2-91.35-16.95
			c-22.97-8.93-39.36-19.59-56.58-36.8c-17.21-17.22-27.88-33.6-36.8-56.58c-6.73-17.33-14.75-43.38-16.95-91.36
			c-2.36-51.87-2.86-67.43-2.86-198.81c0-131.37,0.5-146.93,2.86-198.81c2.2-47.98,10.22-74.02,16.95-91.37
			c8.93-22.96,19.59-39.34,36.8-56.56c17.22-17.22,33.6-27.88,56.58-36.8c17.33-6.74,43.39-14.76,91.35-16.95
			C-1432.93,456.15-1417.36,455.65-1286,455.65 M-1286,367c-133.62,0-150.37,0.57-202.85,2.96c-52.37,2.39-88.13,10.71-119.43,22.87
			c-32.36,12.57-59.8,29.39-87.15,56.75c-27.35,27.35-44.17,54.8-56.74,87.15c-12.17,31.29-20.5,67.06-22.87,119.42
			c-2.4,52.48-2.96,69.23-2.96,202.85c0,133.62,0.56,150.37,2.96,202.86c2.38,52.37,10.7,88.12,22.87,119.42
			c12.56,32.35,29.38,59.79,56.74,87.15c27.35,27.35,54.79,44.18,87.15,56.75c31.3,12.16,67.06,20.48,119.43,22.87
			c52.48,2.39,69.23,2.96,202.85,2.96c133.62,0,150.37-0.56,202.85-2.96c52.37-2.39,88.12-10.71,119.43-22.87
			c32.36-12.57,59.79-29.39,87.14-56.75c27.35-27.36,44.18-54.8,56.75-87.15c12.15-31.3,20.48-67.06,22.87-119.42
			c2.39-52.48,2.95-69.23,2.95-202.86c0-133.62-0.56-150.37-2.95-202.85c-2.39-52.37-10.71-88.13-22.87-119.42
			c-12.57-32.35-29.4-59.8-56.75-87.15c-27.35-27.36-54.79-44.18-87.14-56.75c-31.3-12.15-67.06-20.48-119.43-22.87
			C-1135.62,367.57-1152.38,367-1286,367"/>
		<path id="XMLID_520_" class="st0" d="M-1286,606.36c-139.53,0-252.65,113.11-252.65,252.65s113.12,252.65,252.65,252.65
			c139.54,0,252.65-113.12,252.65-252.65S-1146.46,606.36-1286,606.36 M-1286,1023c-90.58,0-164-73.43-164-164
			c0-90.58,73.42-164,164-164c90.58,0,164,73.42,164,164C-1122,949.57-1195.42,1023-1286,1023"/>
		<path id="XMLID_519_" class="st0" d="M-964.33,596.37c0,32.6-26.43,59.05-59.04,59.05c-32.61,0-59.05-26.45-59.05-59.05
			s26.44-59.04,59.05-59.04C-990.76,537.33-964.33,563.77-964.33,596.37"/>
	</g>
</g>
<g>
	<g id="XMLID_552_">
		<g id="XMLID_2_">
			<g>
				<path class="st0" d="M309.54,372.1c33.96,0,61.66-27.93,61.66-62.11s-27.7-62.11-61.66-62.11s-61.44,27.93-61.44,62.11
					S275.58,372.1,309.54,372.1z M362.04,751.9V415.89H258.16V751.9H362.04z M428.62,751.9h99.64c0,0,0-124.44,0-176.27
					c0-47.14,21.89-75.29,63.45-75.29c38.2,0,56.75,26.81,56.75,75.29s0,176.27,0,176.27H751.9c0,0,0-122.65,0-212.69
					s-50.94-133.38-122.21-133.38s-101.43,55.41-101.43,55.41v-45.35h-99.64V751.9z M988.49,277.37v445.26
					c0,146.78-119.08,265.86-265.86,265.86H277.37c-147,0-265.86-119.08-265.86-265.86V277.37c0-147,118.86-265.86,265.86-265.86
					h445.26C869.41,11.51,988.49,130.37,988.49,277.37z"/>
			</g>
		</g>
	</g>
</g>
<g>
	<g id="XMLID_1_">
		<g>
			<path class="st0" d="M2154.97,302.92V196.74c0,0-69.6,0-84.54,0c-91.01,0-131.83,39.93-131.83,116.66c0,66.7,0,81.64,0,81.64
				h-63.57v103.73h63.57v304.48h122.02V497.43h85.21l9.15-102.39h-94.36c0,0,0-38.37,0-58.44c0-24.09,4.91-33.68,28.33-33.68
				C2107.68,302.92,2154.97,302.92,2154.97,302.92z M2502.73,277.72v444.57c0,146.78-118.67,265.45-265.45,265.45h-444.57
				c-146.55,0-265.45-118.67-265.45-265.45V277.72c0-146.55,118.89-265.45,265.45-265.45h444.57
				C2384.06,12.27,2502.73,131.16,2502.73,277.72z"/>
		</g>
	</g>
</g>
</svg>
