<?xml version="1.0" encoding="utf-8"?>
<!-- Generator: Adobe Illustrator 25.0.0, SVG Export Plug-In . SVG Version: 6.00 Build 0)  -->
<svg version="1.0" id="Camada_1" xmlns="http://www.w3.org/2000/svg" xmlns:xlink="http://www.w3.org/1999/xlink" x="0px" y="0px"
	 viewBox="0 0 1000 685" style="enable-background:new 0 0 1000 685;" xml:space="preserve">
<style type="text/css">
	.st0{fill:#FFFFFF;}
</style>
<path class="st0" d="M3229.61,1990.82l-0.43,2.22l-1.38,1.95c-2.87,4.2-72.43,103.78-204.68,103.78c-10.73,0-21.84-0.72-32.87-2.07
	c-74.7-9.17-149.13-35.46-227.69-80.31c-74.46-42.49-150.77-100.67-233.33-177.93c-91.67-85.72-150.12-195.23-183-272.01
	c-38.82-90.65-61.78-183.13-59.88-241.42c3.52-110.2,135.66-210.77,141.28-215.03l2.62-2l3.41-0.28c4.54-0.31,9.78-0.48,15.44-0.48
	c31.26,0,68.48,4.92,70,5.16l5.14,0.66l2.92,4.35c55.35,84.27,83.72,254.75,84.91,261.94l0.91,5.46l-3.81,4.13
	c-0.73,0.79-75.24,82.14-86.52,94.51c-6.87,7.55-9.57,16.85-10.49,20.69c24.39,108.2,103.08,198.22,165.02,254.81
	c71.62,65.52,140.18,104.89,150.75,109.93c1.98,0.98,3.98,1.93,5.78,2.82c12.3,5.94,20.44,9.86,27.65,9.86
	c4.54,0,9.58-1.5,15.81-4.61c15.46-7.74,83.37-70.68,122.49-108.52l4.97-4.79l6.59,2.15c94.38,31.09,210.73,126.74,215.61,130.82
	l1.79,1.43l1,2.02C3242.27,1924.07,3231.77,1979.86,3229.61,1990.82z"/>
<g>
	<path class="st0" d="M916.25,11.61H83.75c-37.1,0-67.44,30.34-67.44,67.43v525.91c0,37.08,30.34,67.44,67.44,67.44h832.49
		c37.09,0,67.44-30.36,67.44-67.44V79.04C983.69,41.95,953.34,11.61,916.25,11.61z M970.25,78.72L529.98,573.5
		c-8.24,9.25-19.12,13.87-29.98,13.85c-10.86,0.01-21.72-4.6-29.97-13.85L29.76,78.72c-4.76-5.26,0.76-9.27,6.85-3.96L466.1,450.99
		c0.06,0.03,0.11,0.06,0.17,0.11v-0.11c9.28,8.14,21.49,12.2,33.73,12.21c12.24-0.01,24.47-4.07,33.74-12.21l-0.01,0.11
		c0.05-0.05,0.12-0.08,0.17-0.11L963.4,74.76C969.5,69.45,975,73.46,970.25,78.72z"/>
</g>
<g>
	<g id="XMLID_517_">
		<path id="XMLID_543_" class="st0" d="M3136.07-344.1c124.15,0,138.85,0.47,187.87,2.71c45.33,2.07,69.95,9.64,86.34,16.01
			c21.7,8.44,37.19,18.5,53.46,34.78c16.27,16.27,26.34,31.75,34.78,53.45c6.37,16.39,13.94,41.01,16.01,86.34
			c2.23,49.02,2.71,63.72,2.71,187.87c0,124.15-0.48,138.85-2.71,187.87c-2.08,45.34-9.64,69.95-16.01,86.33
			c-8.44,21.71-18.5,37.19-34.78,53.46c-16.27,16.27-31.75,26.34-53.46,34.78c-16.39,6.37-41.01,13.95-86.34,16.02
			c-49.02,2.22-63.72,2.7-187.87,2.7c-124.16,0-138.85-0.47-187.88-2.7c-45.33-2.07-69.95-9.64-86.33-16.02
			c-21.71-8.44-37.19-18.51-53.46-34.78c-16.27-16.27-26.34-31.75-34.78-53.46c-6.36-16.38-13.94-40.99-16.02-86.33
			c-2.23-49.02-2.7-63.72-2.7-187.87c0-124.15,0.47-138.85,2.7-187.87c2.08-45.34,9.65-69.95,16.02-86.34
			c8.44-21.7,18.51-37.18,34.78-53.45c16.27-16.27,31.75-26.34,53.46-34.78c16.38-6.37,41-13.95,86.33-16.01
			C2997.22-343.63,3011.93-344.1,3136.07-344.1 M3136.07-427.88c-126.27,0-142.1,0.54-191.69,2.8
			c-49.49,2.26-83.28,10.13-112.86,21.61c-30.58,11.88-56.51,27.78-82.35,53.63c-25.85,25.85-41.74,51.78-53.61,82.35
			c-11.5,29.57-19.37,63.37-21.61,112.85c-2.27,49.6-2.8,65.42-2.8,191.69c0,126.27,0.53,142.1,2.8,191.7
			c2.25,49.49,10.11,83.28,21.61,112.85c11.87,30.57,27.77,56.5,53.61,82.35c25.85,25.85,51.78,41.75,82.35,53.63
			c29.58,11.49,63.37,19.35,112.86,21.61c49.59,2.26,65.42,2.79,191.69,2.79c126.27,0,142.1-0.53,191.69-2.79
			c49.49-2.26,83.28-10.12,112.86-21.61c30.58-11.88,56.5-27.78,82.35-53.63c25.85-25.85,41.75-51.79,53.63-82.35
			c11.49-29.58,19.35-63.37,21.61-112.85c2.26-49.6,2.79-65.42,2.79-191.7c0-126.27-0.53-142.1-2.79-191.69
			c-2.26-49.49-10.13-83.28-21.61-112.85c-11.88-30.57-27.78-56.51-53.63-82.35c-25.85-25.85-51.77-41.75-82.35-53.63
			c-29.58-11.49-63.37-19.35-112.86-21.61C3278.17-427.34,3262.34-427.88,3136.07-427.88"/>
		<path id="XMLID_520_" class="st0" d="M3136.07-201.69c-131.85,0-238.75,106.89-238.75,238.75s106.9,238.75,238.75,238.75
			c131.86,0,238.75-106.89,238.75-238.75S3267.93-201.69,3136.07-201.69 M3136.07,192.04c-85.6,0-154.98-69.39-154.98-154.98
			c0-85.6,69.38-154.98,154.98-154.98c85.6,0,154.98,69.38,154.98,154.98C3291.04,122.65,3221.66,192.04,3136.07,192.04"/>
		<path id="XMLID_519_" class="st0" d="M3440.05-211.13c0,30.81-24.98,55.8-55.79,55.8c-30.82,0-55.8-24.99-55.8-55.8
			s24.98-55.79,55.8-55.79C3415.07-266.91,3440.05-241.93,3440.05-211.13"/>
	</g>
</g>
<g>
	<g id="XMLID_552_">
		<g id="XMLID_2_">
			<g>
				<path class="st0" d="M4329.7-80.49c32.09,0,58.27-26.39,58.27-58.69s-26.18-58.69-58.27-58.69c-32.09,0-58.06,26.39-58.06,58.69
					S4297.61-80.49,4329.7-80.49z M4379.32,278.42V-39.11h-98.17v317.53H4379.32z M4442.23,278.42h94.16c0,0,0-117.6,0-166.58
					c0-44.55,20.69-71.15,59.96-71.15c36.1,0,53.62,25.33,53.62,71.15s0,166.58,0,166.58h97.75c0,0,0-115.91,0-200.99
					s-48.14-126.04-115.48-126.04c-67.35,0-95.85,52.36-95.85,52.36v-42.86h-94.16V278.42z M4971.31-170v420.77
					c0,138.71-112.53,251.24-251.24,251.24H4299.3c-138.92,0-251.24-112.53-251.24-251.24V-170
					c0-138.92,112.32-251.24,251.24-251.24h420.77C4858.78-421.24,4971.31-308.92,4971.31-170z"/>
			</g>
		</g>
	</g>
</g>
<g>
	<g id="XMLID_1_">
		<g>
			<path class="st0" d="M1900.48-145.14v-100.34c0,0-65.77,0-79.89,0c-86,0-124.58,37.73-124.58,110.25c0,63.03,0,77.15,0,77.15
				h-60.08v98.02h60.08v287.74h115.31v-289h80.52l8.64-96.76h-89.17c0,0,0-36.26,0-55.23c0-22.77,4.64-31.83,26.77-31.83
				C1855.79-145.14,1900.48-145.14,1900.48-145.14z M2229.11-168.96v420.12c0,138.7-112.14,250.85-250.85,250.85h-420.12
				c-138.49,0-250.85-112.14-250.85-250.85v-420.12c0-138.49,112.35-250.85,250.85-250.85h420.12
				C2116.97-419.81,2229.11-307.46,2229.11-168.96z"/>
		</g>
	</g>
</g>
</svg>
